<svg width="82" height="53" viewBox="0 0 82 53" fill="none" xmlns="http://www.w3.org/2000/svg">
    <path d="M10.08 51.2642L2.7597e-05 0.864157H6.55203L14.688 44.7122L38.52 0.864157H45L17.136 51.2642H10.08ZM59.6121 52.1282C56.0601 52.1282 52.9881 51.5042 50.3961 50.2562C47.8041 49.0082 45.8841 47.1842 44.6361 44.7842C43.4361 42.3842 43.1001 39.5042 43.6281 36.1442H49.9641C49.4841 38.2082 49.6281 40.0562 50.3961 41.6882C51.1641 43.3202 52.4121 44.6162 54.1401 45.5762C55.8681 46.5362 57.9321 47.0162 60.3321 47.0162C62.8761 47.0162 65.0121 46.6082 66.7401 45.7922C68.4681 44.9762 69.7881 43.8482 70.7001 42.4082C71.6601 40.9202 72.2121 39.1922 72.3561 37.2242C72.4521 35.8802 72.2601 34.7282 71.7801 33.7682C71.3001 32.8082 70.6281 31.9922 69.7641 31.3202C68.9001 30.6002 67.8681 30.0002 66.6681 29.5202C65.5161 28.9922 64.2441 28.5122 62.8521 28.0802C61.5081 27.6002 60.1401 27.0962 58.7481 26.5682C55.3881 25.3682 52.8921 23.7842 51.2601 21.8162C49.6281 19.8482 48.9081 17.4962 49.1001 14.7602C49.1961 11.8322 50.0121 9.26416 51.5481 7.05616C53.0841 4.84816 55.1721 3.12016 57.8121 1.87216C60.5001 0.624158 63.5721 0.000159264 67.0281 0.000159264C70.1961 0.000159264 72.9081 0.600159 75.1641 1.80016C77.4201 2.95216 79.1001 4.58416 80.2041 6.69616C81.3081 8.80816 81.5961 11.2322 81.0681 13.9682H74.8041C75.0441 12.3842 74.8521 10.9202 74.2281 9.57616C73.6041 8.23216 72.5961 7.17616 71.2041 6.40816C69.8121 5.59216 68.1081 5.18416 66.0921 5.18416C64.0761 5.18416 62.2761 5.54416 60.6921 6.26416C59.1081 6.98416 57.8601 8.01616 56.9481 9.36016C56.0361 10.6562 55.5321 12.1922 55.4361 13.9682C55.3881 15.1202 55.5561 16.1042 55.9401 16.9202C56.3721 17.7362 56.9721 18.4562 57.7401 19.0802C58.5081 19.6562 59.4201 20.2082 60.4761 20.7362C61.5801 21.2162 62.8041 21.6962 64.1481 22.1762C65.4921 22.6082 66.9081 23.0882 68.3961 23.6162C69.9321 24.1922 71.3481 24.8642 72.6441 25.6322C73.9401 26.4002 75.0441 27.3122 75.9561 28.3682C76.9161 29.3762 77.6361 30.5762 78.1161 31.9682C78.6441 33.3122 78.8361 34.8482 78.6921 36.5762C78.5961 39.6002 77.7321 42.2882 76.1001 44.6402C74.5161 46.9442 72.3081 48.7682 69.4761 50.1122C66.6921 51.4562 63.4041 52.1282 59.6121 52.1282Z"
          fill="url(#paint0_linear_33_2023)"/>
    <defs>
        <linearGradient id="paint0_linear_33_2023" x1="-6.77197" y1="-9.73584" x2="84.228" y2="62.2642"
                        gradientUnits="userSpaceOnUse">
            <stop stop-color="#00C16A"/>
            <stop offset="1" stop-color="#FD00F5"/>
        </linearGradient>
    </defs>
</svg>
